<?xml version="1.0" encoding="utf-8"?>
<!-- Generator: Adobe Illustrator 16.0.4, SVG Export Plug-In . SVG Version: 6.00 Build 0)  -->
<!DOCTYPE svg PUBLIC "-//W3C//DTD SVG 1.1//EN" "http://www.w3.org/Graphics/SVG/1.1/DTD/svg11.dtd">
<svg version="1.1" id="Layer_1" xmlns="http://www.w3.org/2000/svg" xmlns:xlink="http://www.w3.org/1999/xlink" x="0px" y="0px"
	 width="115.2px" height="45.2px" viewBox="0 0 115.2 45.2" enable-background="new 0 0 115.2 45.2" xml:space="preserve">
<g>
	<path fill-rule="evenodd" clip-rule="evenodd" fill="#F47B20" d="M83.7,34.6c8.9,0,16.1-7.3,16.1-16.1c0-8.9-7.3-16.2-16.1-16.2
		c-8.9,0-16.2,7.3-16.2,16.2C67.5,27.4,74.8,34.6,83.7,34.6z"/>
	<polyline fill-rule="evenodd" clip-rule="evenodd" fill="none" stroke="#000000" stroke-width="2.196" points="99.8,18.6 
		93.9,18.6 90.4,24.9 83.7,8.6 78.4,20.5 67.7,20.5 	"/>
	<path fill="#F47B20" d="M45.3,2.2h1.4l-1.4,3.4V2.2L45.3,2.2z M45.3,30.8c0.6,1.1,1.4,2,2.2,2.7c1.8,1.5,4,2.2,6.7,2.2
		c2.9,0,5.3-1,7.3-2.9c2-2,3-4.4,3-7.2c0-2.5-0.8-4.5-2.4-5.8c-1.6-1.3-3.3-2.4-5.2-3.2L56,16.1l-0.9-0.4c-1.7-0.9-3.1-1.7-4.2-2.4
		c-1.1-0.8-1.6-1.9-1.6-3.3c0-1.5,0.6-2.6,1.7-3.5c1.1-0.9,2.5-1.4,4-1.4c1,0,1.9,0.2,2.6,0.6c0.7,0.4,1.4,1,2.1,1.9l0.3,0.5
		c0.1,0.1,0.2,0.2,0.4,0.5l2.9-1.9c-1-1.7-2.1-3-3.6-3.8c-1.4-0.9-3-1.3-4.6-1.3c-2.8,0-5.1,0.8-6.9,2.4c-1.8,1.6-2.7,3.6-2.7,6.1
		c0,2.3,0.8,4.1,2.4,5.4c1.6,1.3,3.3,2.3,5.2,3.1l0.6,0.3l0.6,0.2c1.8,0.9,3.3,1.8,4.5,2.6c1.2,0.9,1.9,2.1,1.9,3.8
		c0,1.9-0.6,3.5-1.9,4.8c-1.3,1.3-2.9,1.9-4.8,1.9c-1.7,0-3.1-0.5-4.3-1.6c-1.1-1.1-1.9-2.6-2.4-4.6l-2.2,0.7V30.8z M12.8,26.9
		L23.2,0.4l9.8,26.5l9.7-24.8h2.6v3.4L32.8,36.9l-9.7-26.5L12.7,36.9L0,2.2h4L12.8,26.9L12.8,26.9z M45.3,26.9l-1.4,0.4
		c0.3,1.3,0.8,2.5,1.4,3.6V26.9z"/>
	<path fill="#FFFFFF" d="M97,5.4C93.4,1.9,89,0.1,83.7,0c-0.1,0-0.2,0-0.2,0c-3.3,0-6.4,0.8-9.3,2.5c-2.9,1.7-5.1,3.9-6.8,6.9
		c-1.6,2.9-2.5,6.1-2.5,9.5c0,5.1,1.8,9.5,5.4,13.1c3.6,3.6,8.1,5.4,13.3,5.4c0,0,0,0,0,0c5.2,0,9.6-1.8,13.2-5.4
		c3.6-3.6,5.4-8,5.4-13.2C102.4,13.4,100.6,9,97,5.4z M96.8,26.4c-1.3,2.3-3.1,4.2-5.5,5.5c-2.3,1.3-4.9,2-7.6,2c0,0-0.1,0-0.1,0
		c-4.1,0-7.7-1.5-10.6-4.4c-2.9-2.9-4.4-6.5-4.4-10.7c0-2.8,0.7-5.4,2-7.7c1.3-2.3,3.2-4.2,5.5-5.5c2.4-1.4,4.8-2.1,7.5-2.1
		c0,0,0,0,0.1,0c2.6,0,5.1,0.7,7.5,2.1c2.4,1.4,4.2,3.2,5.5,5.5c1.3,2.3,2,4.8,2,7.7C98.8,21.5,98.1,24.1,96.8,26.4z"/>
	<path fill="#FFFFFF" d="M103.7,17.5c0.8-0.2,1.7-0.4,2.7-0.4c2.5,0,4.6,0.8,6.1,2.4c1.5,1.6,2.3,3.5,2.3,5.7c0,1.6-0.4,3-1.1,4.4
		c-0.8,1.4-2.2,3.2-4.3,5.5l-6.8,7.3h12.6v2.6H96.6L107,33.9c2.1-2.3,3.5-3.9,4.1-5c0.6-1.1,1-2.2,1-3.5c0-1.5-0.6-2.9-1.7-4
		c-1.1-1.1-2.6-1.7-4.2-1.7c-0.9,0-1.8,0.2-2.6,0.5c0.1-0.7,0.1-1.3,0.1-2C103.7,18,103.7,17.8,103.7,17.5z"/>
</g>
</svg>
